{
  "accessors": [
    {
      "bufferView": 2,
      "componentType": 5126,
      "count": 10633,
      "max": [
        5.3669114112854,
        1.933552861213684,
        0.8472312688827515
      ],
      "min": [
        -5.3669114112854,
        -2.54799747467041,
        -0.8472312688827515
      ],
      "type": "VEC3"
    },
    {
      "bufferView": 2,
      "byteOffset": 127596,
      "componentType": 5126,
      "count": 10633,
      "max": [
        1.0,
        1.0,
        1.0
      ],
      "min": [
        -1.0,
        -1.0,
        -1.0
      ],
      "type": "VEC3"
    },
    {
      "bufferView": 3,
      "componentType": 5126,
      "count": 10633,
      "max": [
        1.0,
        1.0,
        1.0,
        1.0
      ],
      "min": [
        -1.0,
        -1.0,
        -1.0,
        -1.0
      ],
      "type": "VEC4"
    },
    {
      "bufferView": 1,
      "componentType": 5126,
      "count": 10633,
      "max": [
        0.9951319098472595,
        0.9951056241989136
      ],
      "min": [
        0.004860398825258017,
        0.004862673114985228
      ],
      "type": "VEC2"
    },
    {
      "bufferView": 1,
      "byteOffset": 85064,
      "componentType": 5126,
      "count": 10633,
      "max": [
        0.9951319098472595,
        0.9951056241989136
      ],
      "min": [
        0.004860398825258017,
        0.004862673114985228
      ],
      "type": "VEC2"
    },
    {
      "bufferView": 1,
      "byteOffset": 170128,
      "componentType": 5126,
      "count": 10633,
      "max": [
        0.9951319098472595,
        0.9951056241989136
      ],
      "min": [
        0.004860398825258017,
        0.004862673114985228
      ],
      "type": "VEC2"
    },
    {
      "bufferView": 0,
      "componentType": 5125,
      "count": 41892,
      "type": "SCALAR"
    }
  ],
  "asset": {
    "extras": {
      "author": "ilarioseb (https://sketchfab.com/ilarioseb)",
      "license": "CC-BY-4.0 (http://creativecommons.org/licenses/by/4.0/)",
      "source": "https://sketchfab.com/3d-models/satellite-402afb3459db47658c39875c38a6ff2a",
      "title": "Satellite"
    },
    "generator": "Sketchfab-16.15.0",
    "version": "2.0"
  },
  "bufferViews": [
    {
      "buffer": 0,
      "byteLength": 167568,
      "name": "floatBufferViews",
      "target": 34963
    },
    {
      "buffer": 0,
      "byteLength": 255192,
      "byteOffset": 167568,
      "byteStride": 8,
      "name": "floatBufferViews",
      "target": 34962
    },
    {
      "buffer": 0,
      "byteLength": 255192,
      "byteOffset": 422760,
      "byteStride": 12,
      "name": "floatBufferViews",
      "target": 34962
    },
    {
      "buffer": 0,
      "byteLength": 170128,
      "byteOffset": 677952,
      "byteStride": 16,
      "name": "floatBufferViews",
      "target": 34962
    }
  ],
  "buffers": [
    {
      "byteLength": 848080,
      "uri": "scene.bin"
    }
  ],
  "images": [
    {
      "uri": "textures/satellite_baseColor.jpeg"
    },
    {
      "uri": "textures/satellite_metallicRoughness.png"
    },
    {
      "uri": "textures/satellite_normal.jpeg"
    }
  ],
  "materials": [
    {
      "doubleSided": true,
      "name": "satellite",
      "normalTexture": {
        "index": 2
      },
      "pbrMetallicRoughness": {
        "baseColorTexture": {
          "index": 0
        },
        "metallicRoughnessTexture": {
          "index": 1
        }
      }
    }
  ],
  "meshes": [
    {
      "name": "satellite_satellite_0",
      "primitives": [
        {
          "attributes": {
            "NORMAL": 1,
            "POSITION": 0,
            "TANGENT": 2,
            "TEXCOORD_0": 3,
            "TEXCOORD_1": 4,
            "TEXCOORD_2": 5
          },
          "indices": 6,
          "material": 0,
          "mode": 4
        }
      ]
    }
  ],
  "nodes": [
    {
      "children": [
        1
      ],
      "matrix": [
        1.0,
        0.0,
        0.0,
        0.0,
        0.0,
        2.220446049250313e-16,
        -1.0,
        0.0,
        0.0,
        1.0,
        2.220446049250313e-16,
        0.0,
        0.0,
        0.0,
        0.0,
        1.0
      ],
      "name": "Sketchfab_model"
    },
    {
      "children": [
        2
      ],
      "matrix": [
        0.009999999776482582,
        0.0,
        0.0,
        0.0,
        0.0,
        0.0,
        0.009999999776482582,
        0.0,
        0.0,
        -0.009999999776482582,
        0.0,
        0.0,
        0.0,
        0.0,
        0.0,
        1.0
      ],
      "name": "satellite.fbx"
    },
    {
      "children": [
        3
      ],
      "name": "RootNode"
    },
    {
      "children": [
        4
      ],
      "matrix": [
        100.0,
        0.0,
        0.0,
        0.0,
        0.0,
        -1.629206793918314e-05,
        -99.99999999999868,
        0.0,
        0.0,
        99.99999999999868,
        -1.629206793918314e-05,
        0.0,
        0.0,
        0.0,
        0.0,
        1.0
      ],
      "name": "satellite"
    },
    {
      "mesh": 0,
      "name": "satellite_satellite_0"
    }
  ],
  "samplers": [
    {
      "magFilter": 9729,
      "minFilter": 9987,
      "wrapS": 10497,
      "wrapT": 10497
    }
  ],
  "scene": 0,
  "scenes": [
    {
      "name": "Sketchfab_Scene",
      "nodes": [
        0
      ]
    }
  ],
  "textures": [
    {
      "sampler": 0,
      "source": 0
    },
    {
      "sampler": 0,
      "source": 1
    },
    {
      "sampler": 0,
      "source": 2
    }
  ]
}
